<mxfile host="app.diagrams.net" agent="Mozilla/5.0 (Macintosh; Intel Mac OS X 10_15_7) AppleWebKit/537.36 (KHTML, like Gecko) Chrome/140.0.0.0 Safari/537.36" version="28.2.5">
  <diagram name="第 1 页" id="AM9eF5ogwX_ygMOq-xcs">
    <mxGraphModel dx="1884" dy="874" grid="1" gridSize="10" guides="1" tooltips="1" connect="1" arrows="1" fold="1" page="1" pageScale="1" pageWidth="827" pageHeight="1169" math="0" shadow="0">
      <root>
        <mxCell id="0" />
        <mxCell id="1" parent="0" />
        <mxCell id="rDZwp7cy9u6FYm0BeWe7-4" value="" style="edgeStyle=orthogonalEdgeStyle;rounded=0;orthogonalLoop=1;jettySize=auto;html=1;" parent="1" source="rDZwp7cy9u6FYm0BeWe7-1" target="rDZwp7cy9u6FYm0BeWe7-2" edge="1">
          <mxGeometry relative="1" as="geometry" />
        </mxCell>
        <mxCell id="rDZwp7cy9u6FYm0BeWe7-1" value="Start" style="ellipse;whiteSpace=wrap;html=1;" parent="1" vertex="1">
          <mxGeometry x="130" y="80" width="100" height="40" as="geometry" />
        </mxCell>
        <mxCell id="rDZwp7cy9u6FYm0BeWe7-6" value="" style="edgeStyle=orthogonalEdgeStyle;rounded=0;orthogonalLoop=1;jettySize=auto;html=1;" parent="1" source="rDZwp7cy9u6FYm0BeWe7-2" target="rDZwp7cy9u6FYm0BeWe7-5" edge="1">
          <mxGeometry relative="1" as="geometry" />
        </mxCell>
        <mxCell id="rDZwp7cy9u6FYm0BeWe7-2" value="get config file" style="rounded=0;whiteSpace=wrap;html=1;" parent="1" vertex="1">
          <mxGeometry x="120" y="160" width="120" height="60" as="geometry" />
        </mxCell>
        <mxCell id="rDZwp7cy9u6FYm0BeWe7-3" value="&lt;ol&gt;&lt;li&gt;config 文件目录 /etc/rancher/agent/config.yaml&lt;/li&gt;&lt;li&gt;workDirectory: /var/lib/rancher/agent/work&lt;/li&gt;&lt;li&gt;appliedPlanDirectory: /var/lib/rancher/agent/applied&lt;/li&gt;&lt;li&gt;remoteEnabled: true&lt;/li&gt;&lt;li&gt;localPlanDirectory: /var/lib/rancher/agent/plans&lt;/li&gt;&lt;li&gt;connectionInfoFile: /var/lib/rancher/agent/rancher2_connection_info.json&lt;/li&gt;&lt;/ol&gt;" style="text;strokeColor=none;fillColor=none;html=1;whiteSpace=wrap;verticalAlign=middle;overflow=hidden;" parent="1" vertex="1">
          <mxGeometry x="240" y="130" width="406" height="140" as="geometry" />
        </mxCell>
        <mxCell id="rDZwp7cy9u6FYm0BeWe7-9" value="" style="edgeStyle=orthogonalEdgeStyle;rounded=0;orthogonalLoop=1;jettySize=auto;html=1;" parent="1" source="rDZwp7cy9u6FYm0BeWe7-5" target="rDZwp7cy9u6FYm0BeWe7-8" edge="1">
          <mxGeometry relative="1" as="geometry" />
        </mxCell>
        <mxCell id="rDZwp7cy9u6FYm0BeWe7-5" value="validate kubeconfig" style="rounded=0;whiteSpace=wrap;html=1;" parent="1" vertex="1">
          <mxGeometry x="120" y="280" width="120" height="60" as="geometry" />
        </mxCell>
        <mxCell id="rDZwp7cy9u6FYm0BeWe7-7" value="验证 connectionInfo file 中的 kubeconfig" style="text;strokeColor=none;fillColor=none;html=1;fontSize=13;fontStyle=0;verticalAlign=middle;align=center;" parent="1" vertex="1">
          <mxGeometry x="340" y="290" width="100" height="40" as="geometry" />
        </mxCell>
        <mxCell id="rDZwp7cy9u6FYm0BeWe7-11" value="" style="edgeStyle=orthogonalEdgeStyle;rounded=0;orthogonalLoop=1;jettySize=auto;html=1;" parent="1" source="rDZwp7cy9u6FYm0BeWe7-8" target="rDZwp7cy9u6FYm0BeWe7-10" edge="1">
          <mxGeometry relative="1" as="geometry" />
        </mxCell>
        <mxCell id="rDZwp7cy9u6FYm0BeWe7-8" value="start secret watcher" style="rounded=0;whiteSpace=wrap;html=1;" parent="1" vertex="1">
          <mxGeometry x="120" y="400" width="120" height="60" as="geometry" />
        </mxCell>
        <mxCell id="rDZwp7cy9u6FYm0BeWe7-10" value="Finish" style="strokeWidth=2;html=1;shape=mxgraph.flowchart.terminator;whiteSpace=wrap;" parent="1" vertex="1">
          <mxGeometry x="130" y="510" width="100" height="50" as="geometry" />
        </mxCell>
        <mxCell id="5n49ZOiwstDIwW3qJ1-9-1" value="Rancher system agent 流程图" style="text;strokeColor=none;fillColor=none;html=1;fontSize=24;fontStyle=1;verticalAlign=middle;align=center;" vertex="1" parent="1">
          <mxGeometry x="280" y="20" width="100" height="40" as="geometry" />
        </mxCell>
        <mxCell id="5n49ZOiwstDIwW3qJ1-9-2" value="Secret controller" style="text;strokeColor=none;fillColor=none;html=1;fontSize=24;fontStyle=1;verticalAlign=middle;align=center;" vertex="1" parent="1">
          <mxGeometry x="130" y="640" width="100" height="40" as="geometry" />
        </mxCell>
        <UserObject label="&lt;div&gt;watch for machine plan secret&lt;/div&gt;" placeholders="1" name="Variable" id="5n49ZOiwstDIwW3qJ1-9-3">
          <mxCell style="text;html=1;strokeColor=none;fillColor=none;align=center;verticalAlign=middle;whiteSpace=wrap;overflow=hidden;" vertex="1" parent="1">
            <mxGeometry x="110" y="680" width="260" height="20" as="geometry" />
          </mxCell>
        </UserObject>
        <mxCell id="5n49ZOiwstDIwW3qJ1-9-7" value="" style="edgeStyle=orthogonalEdgeStyle;rounded=0;orthogonalLoop=1;jettySize=auto;html=1;" edge="1" parent="1" source="5n49ZOiwstDIwW3qJ1-9-4" target="5n49ZOiwstDIwW3qJ1-9-5">
          <mxGeometry relative="1" as="geometry" />
        </mxCell>
        <mxCell id="5n49ZOiwstDIwW3qJ1-9-4" value="compare secret RV" style="rounded=0;whiteSpace=wrap;html=1;" vertex="1" parent="1">
          <mxGeometry x="110" y="760" width="120" height="60" as="geometry" />
        </mxCell>
        <mxCell id="5n49ZOiwstDIwW3qJ1-9-12" value="" style="edgeStyle=orthogonalEdgeStyle;rounded=0;orthogonalLoop=1;jettySize=auto;html=1;" edge="1" parent="1" source="5n49ZOiwstDIwW3qJ1-9-5" target="5n49ZOiwstDIwW3qJ1-9-11">
          <mxGeometry relative="1" as="geometry" />
        </mxCell>
        <mxCell id="5n49ZOiwstDIwW3qJ1-9-5" value="Get Plan Data" style="rounded=0;whiteSpace=wrap;html=1;" vertex="1" parent="1">
          <mxGeometry x="110" y="860" width="120" height="60" as="geometry" />
        </mxCell>
        <mxCell id="5n49ZOiwstDIwW3qJ1-9-6" value="&lt;ol&gt;&lt;li&gt;获取上一次probe状态，读取 probe-status信息&lt;/li&gt;&lt;li&gt;计算 plan Data checksum&lt;/li&gt;&lt;/ol&gt;" style="text;strokeColor=none;fillColor=none;html=1;whiteSpace=wrap;verticalAlign=middle;overflow=hidden;" vertex="1" parent="1">
          <mxGeometry x="240" y="850" width="440" height="80" as="geometry" />
        </mxCell>
        <UserObject label="比较当前 plan data checksum 与 applied plan checksum&lt;div&gt;&lt;div&gt;if equal, needApplied=true&lt;/div&gt;&lt;div&gt;if not equal needApplied=false&lt;/div&gt;&lt;/div&gt;" placeholders="1" name="Variable" id="5n49ZOiwstDIwW3qJ1-9-9">
          <mxCell style="text;html=1;strokeColor=none;fillColor=none;align=center;verticalAlign=middle;whiteSpace=wrap;overflow=hidden;" vertex="1" parent="1">
            <mxGeometry x="230" y="960" width="420" height="70" as="geometry" />
          </mxCell>
        </UserObject>
        <mxCell id="5n49ZOiwstDIwW3qJ1-9-15" value="" style="edgeStyle=orthogonalEdgeStyle;rounded=0;orthogonalLoop=1;jettySize=auto;html=1;" edge="1" parent="1" source="5n49ZOiwstDIwW3qJ1-9-11" target="5n49ZOiwstDIwW3qJ1-9-13">
          <mxGeometry relative="1" as="geometry" />
        </mxCell>
        <mxCell id="5n49ZOiwstDIwW3qJ1-9-11" value="validate checksum" style="rounded=0;whiteSpace=wrap;html=1;" vertex="1" parent="1">
          <mxGeometry x="110" y="960" width="120" height="60" as="geometry" />
        </mxCell>
        <mxCell id="5n49ZOiwstDIwW3qJ1-9-17" value="" style="edgeStyle=orthogonalEdgeStyle;rounded=0;orthogonalLoop=1;jettySize=auto;html=1;" edge="1" parent="1" source="5n49ZOiwstDIwW3qJ1-9-13" target="5n49ZOiwstDIwW3qJ1-9-16">
          <mxGeometry relative="1" as="geometry" />
        </mxCell>
        <mxCell id="5n49ZOiwstDIwW3qJ1-9-13" value="check failure count" style="rounded=0;whiteSpace=wrap;html=1;" vertex="1" parent="1">
          <mxGeometry x="110" y="1080" width="120" height="60" as="geometry" />
        </mxCell>
        <mxCell id="5n49ZOiwstDIwW3qJ1-9-14" value="&lt;ol&gt;&lt;li&gt;检查 failed-checksum 与 plan data checksum&lt;/li&gt;&lt;li&gt;如果一致证明当前任务执行失败，显示日志 [K8s] Plan appears to have failed before, failure count was 1&lt;/li&gt;&lt;li&gt;检查 failure count 和最大失败次数，如果达到最大失败次数，显示日志&amp;nbsp;[K8s] Maximum failure threshold exceeded for plan with checksum value of %s, (failures: %d, threshold: %d)&lt;/li&gt;&lt;/ol&gt;" style="text;strokeColor=none;fillColor=none;html=1;whiteSpace=wrap;verticalAlign=middle;overflow=hidden;" vertex="1" parent="1">
          <mxGeometry x="230" y="1050" width="440" height="150" as="geometry" />
        </mxCell>
        <mxCell id="5n49ZOiwstDIwW3qJ1-9-20" value="" style="edgeStyle=orthogonalEdgeStyle;rounded=0;orthogonalLoop=1;jettySize=auto;html=1;" edge="1" parent="1" source="5n49ZOiwstDIwW3qJ1-9-16" target="5n49ZOiwstDIwW3qJ1-9-19">
          <mxGeometry relative="1" as="geometry" />
        </mxCell>
        <mxCell id="5n49ZOiwstDIwW3qJ1-9-16" value="applyinator.Apply" style="rounded=0;whiteSpace=wrap;html=1;" vertex="1" parent="1">
          <mxGeometry x="110" y="1230" width="120" height="60" as="geometry" />
        </mxCell>
        <mxCell id="5n49ZOiwstDIwW3qJ1-9-18" value="&lt;ol&gt;&lt;li&gt;文件加锁，保证只有一个 controller 处理&lt;/li&gt;&lt;li&gt;如果强制 apply，需要保存 Plan Files 到本地，例如集群配置、registry 配置等&lt;/li&gt;&lt;li&gt;如果是强制更新(one time instruction)，强制执行当前任务 plan instruction&lt;/li&gt;&lt;li&gt;如果包含 periodic instruction，执行它，并记录执行成功/失败状态&lt;/li&gt;&lt;/ol&gt;" style="text;strokeColor=none;fillColor=none;html=1;whiteSpace=wrap;verticalAlign=middle;overflow=hidden;" vertex="1" parent="1">
          <mxGeometry x="230" y="1220" width="410" height="110" as="geometry" />
        </mxCell>
        <mxCell id="5n49ZOiwstDIwW3qJ1-9-23" value="" style="edgeStyle=orthogonalEdgeStyle;rounded=0;orthogonalLoop=1;jettySize=auto;html=1;" edge="1" parent="1" source="5n49ZOiwstDIwW3qJ1-9-19" target="5n49ZOiwstDIwW3qJ1-9-22">
          <mxGeometry relative="1" as="geometry" />
        </mxCell>
        <mxCell id="5n49ZOiwstDIwW3qJ1-9-19" value="update secret object" style="rounded=0;whiteSpace=wrap;html=1;" vertex="1" parent="1">
          <mxGeometry x="110" y="1380" width="120" height="60" as="geometry" />
        </mxCell>
        <mxCell id="5n49ZOiwstDIwW3qJ1-9-21" value="&lt;ol&gt;&lt;li&gt;如果&amp;nbsp;(needsApplied &amp;amp;&amp;amp; !applyOutput.OneTimeApplySucceeded) || (!needsApplied &amp;amp;&amp;amp; wasFailedPlan) 则将 failedchecksum 更新为 plan checksum，并输出日志：[K8s] one-time-instructions with checksum (%s) either failed or was already failed (and cooldown period hasn&#39;t elapsed) during application。（如果 needsApplied 为 true 则重置 successCount 为 0）&lt;/li&gt;&lt;li&gt;否则更新 appliedOutput 和 applied checksum 为当前任务结果，并且重置 failure count 等信息&lt;/li&gt;&lt;/ol&gt;" style="text;strokeColor=none;fillColor=none;html=1;whiteSpace=wrap;verticalAlign=middle;overflow=hidden;" vertex="1" parent="1">
          <mxGeometry x="230" y="1350" width="460" height="140" as="geometry" />
        </mxCell>
        <mxCell id="5n49ZOiwstDIwW3qJ1-9-25" value="" style="edgeStyle=orthogonalEdgeStyle;rounded=0;orthogonalLoop=1;jettySize=auto;html=1;" edge="1" parent="1" source="5n49ZOiwstDIwW3qJ1-9-22" target="5n49ZOiwstDIwW3qJ1-9-24">
          <mxGeometry relative="1" as="geometry" />
        </mxCell>
        <mxCell id="5n49ZOiwstDIwW3qJ1-9-22" value="DoProbes" style="rounded=0;whiteSpace=wrap;html=1;" vertex="1" parent="1">
          <mxGeometry x="110" y="1520" width="120" height="60" as="geometry" />
        </mxCell>
        <mxCell id="5n49ZOiwstDIwW3qJ1-9-27" value="" style="edgeStyle=orthogonalEdgeStyle;rounded=0;orthogonalLoop=1;jettySize=auto;html=1;" edge="1" parent="1" source="5n49ZOiwstDIwW3qJ1-9-24" target="5n49ZOiwstDIwW3qJ1-9-26">
          <mxGeometry relative="1" as="geometry" />
        </mxCell>
        <mxCell id="5n49ZOiwstDIwW3qJ1-9-24" value="update probe status for secret" style="rounded=0;whiteSpace=wrap;html=1;" vertex="1" parent="1">
          <mxGeometry x="110" y="1640" width="120" height="60" as="geometry" />
        </mxCell>
        <mxCell id="5n49ZOiwstDIwW3qJ1-9-26" value="Compare secret and save it if secret changed" style="rounded=0;whiteSpace=wrap;html=1;" vertex="1" parent="1">
          <mxGeometry x="110" y="1760" width="120" height="60" as="geometry" />
        </mxCell>
        <mxCell id="5n49ZOiwstDIwW3qJ1-9-28" value="&lt;ol&gt;&lt;li&gt;检查各个组件状态，调用健康检查接口，etcd/apiserver/controller-manager/scheduler/kubelet&lt;/li&gt;&lt;/ol&gt;" style="text;strokeColor=none;fillColor=none;html=1;whiteSpace=wrap;verticalAlign=middle;overflow=hidden;" vertex="1" parent="1">
          <mxGeometry x="240" y="1520" width="390" height="80" as="geometry" />
        </mxCell>
      </root>
    </mxGraphModel>
  </diagram>
</mxfile>
